<!-- Generator: Adobe Illustrator 19.2.1, SVG Export Plug-In  -->
<svg version="1.1"
	 xmlns="http://www.w3.org/2000/svg" xmlns:xlink="http://www.w3.org/1999/xlink" xmlns:a="http://ns.adobe.com/AdobeSVGViewerExtensions/3.0/"
	 x="0px" y="0px" width="680.6px" height="716.1px" viewBox="0 0 680.6 716.1" style="enable-background:new 0 0 680.6 716.1;"
	 xml:space="preserve">
<style type="text/css">
	.st0{fill-rule:evenodd;clip-rule:evenodd;fill:#F2F2F2;}
</style>
<defs>
</defs>
<g>
	<path class="st0" d="M459,445.5C574.7,488.1,661.2,591,680.6,716.1H627c-25-135.8-143.7-238.7-286.7-238.7l0,0l0,0
		c-143,0-261.7,102.9-286.7,238.7H0c19.4-125.1,105.9-228,221.5-270.5c-71.6-41.2-119.9-118.3-119.9-206.8V0H579v238.7
		C579,327.2,530.7,404.3,459,445.5L459,445.5z M419.9,79.6h-53v-53h-53v53h-53v53h53v53h53v-53h53V79.6L419.9,79.6z M154.6,238.7
		c0,102.5,83.1,185.6,185.6,185.6s185.6-83.1,185.6-185.6H154.6L154.6,238.7z"/>
</g>
</svg>