<?xml version="1.0" standalone="no"?><!DOCTYPE svg PUBLIC "-//W3C//DTD SVG 1.1//EN" "http://www.w3.org/Graphics/SVG/1.1/DTD/svg11.dtd"><svg t="1490066815488" class="icon" style="" viewBox="0 0 1437 1024" version="1.1" xmlns="http://www.w3.org/2000/svg" p-id="6900" xmlns:xlink="http://www.w3.org/1999/xlink" width="280.6640625" height="200"><defs><style type="text/css"></style></defs><path d="M1406.516417 746.59472c0 153.181223-102.292825 277.385432-228.461914 277.385432L228.481761 1023.980153c-126.169089 0-228.461914-124.20421-228.461914-277.385432L0.019847 344.985231c0-153.181223 102.292825-277.385432 228.461914-277.385432l949.572741 0c126.169089 0 228.461914 124.20421 228.461914 277.385432L1406.516417 746.59472zM626.498895 301.638795l-97.410397 0 0 488.302361 97.410397 0C626.498895 789.941156 626.498895 301.638795 626.498895 301.638795zM877.408071 301.638795l-97.410397 0 0 488.302361 97.410397 0L877.408071 301.638795z" p-id="6901"></path></svg>